<svg width="202" height="51" viewBox="0 0 202 51" fill="none" xmlns="http://www.w3.org/2000/svg">
<path d="M74.8409 34.2045C74.0057 34.2045 73.267 34.0682 72.625 33.7955C71.9886 33.517 71.4886 33.0966 71.125 32.5341C70.7614 31.9716 70.5795 31.2557 70.5795 30.3864C70.5795 29.6705 70.7017 29.0597 70.946 28.554C71.1903 28.0426 71.5312 27.625 71.9688 27.3011C72.4062 26.9773 72.9148 26.7301 73.4943 26.5597C74.0795 26.3892 74.7102 26.2784 75.3864 26.2273C76.1193 26.1705 76.7074 26.1023 77.1506 26.0227C77.5994 25.9375 77.9233 25.821 78.1222 25.6733C78.321 25.5199 78.4205 25.3182 78.4205 25.0682V25.0341C78.4205 24.6932 78.2898 24.4318 78.0284 24.25C77.767 24.0682 77.4318 23.9773 77.0227 23.9773C76.5739 23.9773 76.2074 24.0767 75.9233 24.2756C75.6449 24.4687 75.4773 24.767 75.4205 25.1705H71.0909C71.1477 24.375 71.4006 23.642 71.8494 22.9716C72.304 22.2955 72.9659 21.7557 73.8352 21.3523C74.7045 20.9432 75.7898 20.7386 77.0909 20.7386C78.0284 20.7386 78.8693 20.8494 79.6136 21.071C80.358 21.2869 80.9915 21.5909 81.5142 21.983C82.0369 22.3693 82.4347 22.8239 82.7074 23.3466C82.9858 23.8636 83.125 24.4261 83.125 25.0341V34H78.7273V32.1591H78.625C78.3636 32.6477 78.0455 33.0426 77.6705 33.3438C77.3011 33.6449 76.8778 33.8636 76.4006 34C75.929 34.1364 75.4091 34.2045 74.8409 34.2045ZM76.375 31.2386C76.733 31.2386 77.0682 31.1648 77.3807 31.017C77.6989 30.8693 77.9574 30.6562 78.1562 30.3778C78.3551 30.0994 78.4545 29.7614 78.4545 29.3636V28.2727C78.3295 28.3239 78.196 28.3722 78.054 28.4176C77.9176 28.4631 77.7699 28.5057 77.6108 28.5455C77.4574 28.5852 77.2926 28.6222 77.1165 28.6562C76.946 28.6903 76.767 28.7216 76.5795 28.75C76.2159 28.8068 75.9176 28.9006 75.6847 29.0312C75.4574 29.1562 75.2869 29.3125 75.1733 29.5C75.0653 29.6818 75.0114 29.8864 75.0114 30.1136C75.0114 30.4773 75.1392 30.7557 75.3949 30.9489C75.6506 31.142 75.9773 31.2386 76.375 31.2386ZM91.7956 34.2386C90.3979 34.2386 89.1933 33.9716 88.182 33.4375C87.1763 32.8977 86.4007 32.125 85.8553 31.1193C85.3155 30.108 85.0456 28.8977 85.0456 27.4886C85.0456 26.1364 85.3183 24.9545 85.8638 23.9432C86.4092 22.9318 87.1791 22.1449 88.1734 21.5824C89.1678 21.0199 90.3411 20.7386 91.6933 20.7386C92.682 20.7386 93.5768 20.892 94.378 21.1989C95.1791 21.5057 95.8638 21.9517 96.432 22.5369C97.0001 23.1165 97.4376 23.821 97.7445 24.6506C98.0513 25.4801 98.2047 26.4148 98.2047 27.4545V28.5455H86.5115V25.9545H93.8751C93.8695 25.5795 93.7729 25.25 93.5854 24.9659C93.4036 24.6761 93.1564 24.4517 92.8439 24.2926C92.5371 24.1278 92.1876 24.0455 91.7956 24.0455C91.4149 24.0455 91.0655 24.1278 90.7473 24.2926C90.4291 24.4517 90.1734 24.6733 89.9803 24.9574C89.7928 25.2415 89.6933 25.5739 89.682 25.9545V28.75C89.682 29.1705 89.77 29.5455 89.9462 29.875C90.1223 30.2045 90.3751 30.4631 90.7047 30.6506C91.0342 30.8381 91.432 30.9318 91.8979 30.9318C92.2217 30.9318 92.5172 30.8864 92.7842 30.7955C93.057 30.7045 93.2899 30.5739 93.4831 30.4034C93.6763 30.2273 93.8183 30.017 93.9092 29.7727H98.2047C98.057 30.6818 97.7075 31.4716 97.1564 32.142C96.6053 32.8068 95.8751 33.3239 94.9661 33.6932C94.0626 34.0568 93.0058 34.2386 91.7956 34.2386ZM100.274 34V20.9091H104.843V23.3977H104.979C105.218 22.4773 105.595 21.804 106.112 21.3778C106.635 20.9517 107.246 20.7386 107.945 20.7386C108.149 20.7386 108.351 20.7557 108.55 20.7898C108.755 20.8182 108.951 20.8608 109.138 20.9176V24.9318C108.905 24.8523 108.618 24.7926 108.277 24.7528C107.936 24.7131 107.644 24.6932 107.399 24.6932C106.939 24.6932 106.524 24.7983 106.155 25.0085C105.791 25.2131 105.505 25.5028 105.294 25.8778C105.084 26.2472 104.979 26.6818 104.979 27.1818V34H100.274ZM116.388 34.2386C114.967 34.2386 113.751 33.9574 112.74 33.3949C111.728 32.8267 110.953 32.0369 110.413 31.0256C109.873 30.0085 109.603 28.8295 109.603 27.4886C109.603 26.1477 109.873 24.9716 110.413 23.9602C110.953 22.9432 111.728 22.1534 112.74 21.5909C113.751 21.0227 114.967 20.7386 116.388 20.7386C117.808 20.7386 119.024 21.0227 120.035 21.5909C121.047 22.1534 121.822 22.9432 122.362 23.9602C122.902 24.9716 123.172 26.1477 123.172 27.4886C123.172 28.8295 122.902 30.0085 122.362 31.0256C121.822 32.0369 121.047 32.8267 120.035 33.3949C119.024 33.9574 117.808 34.2386 116.388 34.2386ZM116.422 30.7614C116.819 30.7614 117.163 30.6278 117.453 30.3608C117.743 30.0937 117.967 29.7131 118.126 29.2188C118.285 28.7244 118.365 28.1364 118.365 27.4545C118.365 26.767 118.285 26.179 118.126 25.6903C117.967 25.196 117.743 24.8153 117.453 24.5483C117.163 24.2812 116.819 24.1477 116.422 24.1477C116.001 24.1477 115.64 24.2812 115.339 24.5483C115.038 24.8153 114.808 25.196 114.649 25.6903C114.49 26.179 114.41 26.767 114.41 27.4545C114.41 28.1364 114.49 28.7244 114.649 29.2188C114.808 29.7131 115.038 30.0937 115.339 30.3608C115.64 30.6278 116.001 30.7614 116.422 30.7614ZM131.537 39.1818C130.225 39.1818 129.1 38.9943 128.162 38.6193C127.231 38.25 126.506 37.7386 125.989 37.0852C125.478 36.4375 125.191 35.6932 125.128 34.8523H129.662C129.708 35.1307 129.822 35.3551 130.003 35.5256C130.185 35.696 130.418 35.8182 130.702 35.892C130.992 35.9716 131.316 36.0114 131.674 36.0114C132.282 36.0114 132.785 35.8636 133.182 35.5682C133.586 35.2727 133.787 34.7386 133.787 33.9659V31.75H133.651C133.481 32.1932 133.219 32.571 132.867 32.8835C132.515 33.1903 132.091 33.4261 131.597 33.5909C131.103 33.75 130.56 33.8295 129.969 33.8295C129.037 33.8295 128.18 33.6136 127.395 33.1818C126.617 32.75 125.992 32.0653 125.52 31.1278C125.055 30.1903 124.822 28.9659 124.822 27.4545C124.822 25.875 125.066 24.5909 125.555 23.6023C126.049 22.6136 126.685 21.8892 127.464 21.429C128.248 20.9688 129.072 20.7386 129.935 20.7386C130.583 20.7386 131.151 20.8523 131.64 21.0795C132.128 21.3011 132.537 21.5994 132.867 21.9744C133.197 22.3437 133.447 22.75 133.617 23.1932H133.719V20.9091H138.424V33.9659C138.424 35.0739 138.137 36.0142 137.563 36.7869C136.995 37.5653 136.194 38.1591 135.16 38.5682C134.126 38.9773 132.918 39.1818 131.537 39.1818ZM131.708 30.4886C132.14 30.4886 132.509 30.3693 132.816 30.1307C133.128 29.8864 133.367 29.5398 133.532 29.0909C133.702 28.6364 133.787 28.0909 133.787 27.4545C133.787 26.8068 133.702 26.2528 133.532 25.7926C133.367 25.3267 133.128 24.9716 132.816 24.7273C132.509 24.4773 132.14 24.3523 131.708 24.3523C131.276 24.3523 130.907 24.4773 130.6 24.7273C130.299 24.9716 130.066 25.3267 129.901 25.7926C129.742 26.2528 129.662 26.8068 129.662 27.4545C129.662 28.1023 129.742 28.6534 129.901 29.108C130.066 29.5568 130.299 29.9006 130.6 30.1392C130.907 30.3722 131.276 30.4886 131.708 30.4886ZM145.671 16.5455V34H140.967V16.5455H145.671ZM154.525 34.2386C153.105 34.2386 151.889 33.9574 150.877 33.3949C149.866 32.8267 149.09 32.0369 148.551 31.0256C148.011 30.0085 147.741 28.8295 147.741 27.4886C147.741 26.1477 148.011 24.9716 148.551 23.9602C149.09 22.9432 149.866 22.1534 150.877 21.5909C151.889 21.0227 153.105 20.7386 154.525 20.7386C155.945 20.7386 157.161 21.0227 158.173 21.5909C159.184 22.1534 159.96 22.9432 160.499 23.9602C161.039 24.9716 161.309 26.1477 161.309 27.4886C161.309 28.8295 161.039 30.0085 160.499 31.0256C159.96 32.0369 159.184 32.8267 158.173 33.3949C157.161 33.9574 155.945 34.2386 154.525 34.2386ZM154.559 30.7614C154.957 30.7614 155.301 30.6278 155.59 30.3608C155.88 30.0937 156.105 29.7131 156.264 29.2188C156.423 28.7244 156.502 28.1364 156.502 27.4545C156.502 26.767 156.423 26.179 156.264 25.6903C156.105 25.196 155.88 24.8153 155.59 24.5483C155.301 24.2812 154.957 24.1477 154.559 24.1477C154.139 24.1477 153.778 24.2812 153.477 24.5483C153.176 24.8153 152.945 25.196 152.786 25.6903C152.627 26.179 152.548 26.767 152.548 27.4545C152.548 28.1364 152.627 28.7244 152.786 29.2188C152.945 29.7131 153.176 30.0937 153.477 30.3608C153.778 30.6278 154.139 30.7614 154.559 30.7614ZM163.3 34V16.5455H168.005V23.1932H168.073C168.243 22.75 168.493 22.3437 168.823 21.9744C169.152 21.5994 169.561 21.3011 170.05 21.0795C170.539 20.8523 171.107 20.7386 171.755 20.7386C172.618 20.7386 173.439 20.9688 174.218 21.429C175.002 21.8892 175.638 22.6136 176.127 23.6023C176.621 24.5909 176.868 25.875 176.868 27.4545C176.868 28.9659 176.632 30.2187 176.161 31.2131C175.695 32.2074 175.07 32.9489 174.286 33.4375C173.507 33.9261 172.652 34.1705 171.72 34.1705C171.107 34.1705 170.559 34.071 170.076 33.8722C169.598 33.6676 169.189 33.392 168.848 33.0455C168.513 32.6932 168.255 32.2955 168.073 31.8523H167.97V34H163.3ZM167.902 27.4545C167.902 28.0909 167.985 28.642 168.149 29.108C168.32 29.5682 168.559 29.9261 168.865 30.1818C169.178 30.4318 169.55 30.5568 169.982 30.5568C170.414 30.5568 170.78 30.4347 171.081 30.1903C171.388 29.9403 171.621 29.5852 171.78 29.125C171.945 28.6591 172.027 28.1023 172.027 27.4545C172.027 26.8068 171.945 26.2528 171.78 25.7926C171.621 25.3267 171.388 24.9716 171.081 24.7273C170.78 24.4773 170.414 24.3523 169.982 24.3523C169.55 24.3523 169.178 24.4773 168.865 24.7273C168.559 24.9716 168.32 25.3267 168.149 25.7926C167.985 26.2528 167.902 26.8068 167.902 27.4545ZM185.26 34.2386C183.862 34.2386 182.657 33.9716 181.646 33.4375C180.64 32.8977 179.865 32.125 179.319 31.1193C178.78 30.108 178.51 28.8977 178.51 27.4886C178.51 26.1364 178.782 24.9545 179.328 23.9432C179.873 22.9318 180.643 22.1449 181.637 21.5824C182.632 21.0199 183.805 20.7386 185.157 20.7386C186.146 20.7386 187.041 20.892 187.842 21.1989C188.643 21.5057 189.328 21.9517 189.896 22.5369C190.464 23.1165 190.902 23.821 191.209 24.6506C191.515 25.4801 191.669 26.4148 191.669 27.4545V28.5455H179.976V25.9545H187.339C187.334 25.5795 187.237 25.25 187.049 24.9659C186.868 24.6761 186.62 24.4517 186.308 24.2926C186.001 24.1278 185.652 24.0455 185.26 24.0455C184.879 24.0455 184.53 24.1278 184.211 24.2926C183.893 24.4517 183.637 24.6733 183.444 24.9574C183.257 25.2415 183.157 25.5739 183.146 25.9545V28.75C183.146 29.1705 183.234 29.5455 183.41 29.875C183.586 30.2045 183.839 30.4631 184.169 30.6506C184.498 30.8381 184.896 30.9318 185.362 30.9318C185.686 30.9318 185.981 30.8864 186.248 30.7955C186.521 30.7045 186.754 30.5739 186.947 30.4034C187.14 30.2273 187.282 30.017 187.373 29.7727H191.669C191.521 30.6818 191.172 31.4716 190.62 32.142C190.069 32.8068 189.339 33.3239 188.43 33.6932C187.527 34.0568 186.47 34.2386 185.26 34.2386Z" fill="#111827"/>
<path d="M196.295 34.2727C195.636 34.2727 195.071 34.0426 194.599 33.5824C194.133 33.1165 193.903 32.5511 193.909 31.8864C193.903 31.2386 194.133 30.6847 194.599 30.2244C195.071 29.7642 195.636 29.5341 196.295 29.5341C196.92 29.5341 197.471 29.7642 197.949 30.2244C198.432 30.6847 198.676 31.2386 198.682 31.8864C198.676 32.3295 198.56 32.733 198.332 33.0966C198.111 33.4545 197.821 33.7415 197.463 33.9574C197.105 34.1676 196.716 34.2727 196.295 34.2727Z" fill="#10B981"/>
<rect width="54" height="50.0455" rx="8" fill="#10B981" fill-opacity="0.08"/>
<path d="M21.4494 33.9545C20.3358 33.9545 19.3509 33.7727 18.4949 33.4091C17.6464 33.0379 16.9797 32.4773 16.4949 31.7273C16.01 30.9773 15.7676 30.0227 15.7676 28.8636C15.7676 27.9091 15.9305 27.0947 16.2562 26.4205C16.582 25.7386 17.0365 25.1818 17.6199 24.75C18.2032 24.3182 18.8812 23.9886 19.6539 23.7614C20.4342 23.5341 21.2752 23.3864 22.1767 23.3182C23.1539 23.2424 23.938 23.1515 24.5289 23.0455C25.1274 22.9318 25.5592 22.7765 25.8244 22.5795C26.0895 22.375 26.2221 22.1061 26.2221 21.7727V21.7273C26.2221 21.2727 26.0479 20.9242 25.6994 20.6818C25.3509 20.4394 24.9039 20.3182 24.3585 20.3182C23.76 20.3182 23.2714 20.4508 22.8926 20.7159C22.5214 20.9735 22.2979 21.3712 22.2221 21.9091H16.4494C16.5252 20.8485 16.8623 19.8712 17.4608 18.9773C18.0668 18.0758 18.9494 17.3561 20.1085 16.8182C21.2676 16.2727 22.7145 16 24.4494 16C25.6994 16 26.8206 16.1477 27.813 16.4432C28.8055 16.7311 29.6502 17.1364 30.3471 17.6591C31.0441 18.1742 31.5744 18.7803 31.938 19.4773C32.3092 20.1667 32.4949 20.9167 32.4949 21.7273V33.6818H26.6312V31.2273H26.4949C26.1464 31.8788 25.7221 32.4053 25.2221 32.8068C24.7297 33.2083 24.1653 33.5 23.5289 33.6818C22.9002 33.8636 22.207 33.9545 21.4494 33.9545ZM23.4949 30C23.9721 30 24.4191 29.9015 24.8358 29.7045C25.26 29.5076 25.6047 29.2235 25.8699 28.8523C26.135 28.4811 26.2676 28.0303 26.2676 27.5V26.0455C26.1009 26.1136 25.9229 26.178 25.7335 26.2386C25.5517 26.2992 25.3547 26.3561 25.1426 26.4091C24.938 26.4621 24.7183 26.5114 24.4835 26.5568C24.2562 26.6023 24.0176 26.6439 23.7676 26.6818C23.2827 26.7576 22.885 26.8826 22.5744 27.0568C22.2714 27.2235 22.0441 27.4318 21.8926 27.6818C21.7486 27.9242 21.6767 28.197 21.6767 28.5C21.6767 28.9848 21.8471 29.3561 22.188 29.6136C22.5289 29.8712 22.9645 30 23.4949 30Z" fill="#111827"/>
<path d="M39.0511 34.0455C38.1723 34.0455 37.4185 33.7386 36.7897 33.125C36.1685 32.5038 35.8617 31.75 35.8693 30.8636C35.8617 30 36.1685 29.2614 36.7897 28.6477C37.4185 28.0341 38.1723 27.7273 39.0511 27.7273C39.8844 27.7273 40.6193 28.0341 41.2556 28.6477C41.8996 29.2614 42.2253 30 42.2329 30.8636C42.2253 31.4545 42.07 31.9924 41.767 32.4773C41.4716 32.9545 41.0852 33.3371 40.6079 33.625C40.1306 33.9053 39.6117 34.0455 39.0511 34.0455Z" fill="#10B981"/>
</svg>
