<svg width="129" height="24" viewBox="0 0 129 24" fill="none" xmlns="http://www.w3.org/2000/svg">
<path d="M4.84091 18.2045C4.00568 18.2045 3.26705 18.0682 2.625 17.7955C1.98864 17.517 1.48864 17.0966 1.125 16.5341C0.761364 15.9716 0.579545 15.2557 0.579545 14.3864C0.579545 13.6705 0.701705 13.0597 0.946023 12.554C1.19034 12.0426 1.53125 11.625 1.96875 11.3011C2.40625 10.9773 2.91477 10.7301 3.49432 10.5597C4.07955 10.3892 4.71023 10.2784 5.38636 10.2273C6.11932 10.1705 6.70739 10.1023 7.15057 10.0227C7.59943 9.9375 7.9233 9.82102 8.12216 9.6733C8.32102 9.51989 8.42045 9.31818 8.42045 9.06818V9.03409C8.42045 8.69318 8.28977 8.43182 8.02841 8.25C7.76705 8.06818 7.43182 7.97727 7.02273 7.97727C6.57386 7.97727 6.20739 8.0767 5.9233 8.27557C5.64489 8.46875 5.47727 8.76705 5.42045 9.17045H1.09091C1.14773 8.375 1.40057 7.64205 1.84943 6.97159C2.30398 6.29545 2.96591 5.75568 3.83523 5.35227C4.70455 4.94318 5.78977 4.73864 7.09091 4.73864C8.02841 4.73864 8.86932 4.84943 9.61364 5.07102C10.358 5.28693 10.9915 5.59091 11.5142 5.98295C12.0369 6.36932 12.4347 6.82386 12.7074 7.34659C12.9858 7.86364 13.125 8.42614 13.125 9.03409V18H8.72727V16.1591H8.625C8.36364 16.6477 8.04545 17.0426 7.67045 17.3438C7.30114 17.6449 6.87784 17.8636 6.40057 18C5.92898 18.1364 5.40909 18.2045 4.84091 18.2045ZM6.375 15.2386C6.73295 15.2386 7.06818 15.1648 7.38068 15.017C7.69886 14.8693 7.95739 14.6562 8.15625 14.3778C8.35511 14.0994 8.45455 13.7614 8.45455 13.3636V12.2727C8.32955 12.3239 8.19602 12.3722 8.05398 12.4176C7.91761 12.4631 7.76989 12.5057 7.6108 12.5455C7.45739 12.5852 7.29261 12.6222 7.11648 12.6562C6.94602 12.6903 6.76705 12.7216 6.57955 12.75C6.21591 12.8068 5.91761 12.9006 5.68466 13.0312C5.45739 13.1562 5.28693 13.3125 5.1733 13.5C5.06534 13.6818 5.01136 13.8864 5.01136 14.1136C5.01136 14.4773 5.1392 14.7557 5.39489 14.9489C5.65057 15.142 5.97727 15.2386 6.375 15.2386ZM21.7956 18.2386C20.3979 18.2386 19.1933 17.9716 18.182 17.4375C17.1763 16.8977 16.4007 16.125 15.8553 15.1193C15.3155 14.108 15.0456 12.8977 15.0456 11.4886C15.0456 10.1364 15.3183 8.95455 15.8638 7.94318C16.4092 6.93182 17.1791 6.14489 18.1734 5.58239C19.1678 5.01989 20.3411 4.73864 21.6933 4.73864C22.682 4.73864 23.5768 4.89205 24.378 5.19886C25.1791 5.50568 25.8638 5.9517 26.432 6.53693C27.0001 7.11648 27.4376 7.82102 27.7445 8.65057C28.0513 9.48011 28.2047 10.4148 28.2047 11.4545V12.5455H16.5115V9.95455H23.8751C23.8695 9.57955 23.7729 9.25 23.5854 8.96591C23.4036 8.67614 23.1564 8.4517 22.8439 8.29261C22.5371 8.12784 22.1876 8.04545 21.7956 8.04545C21.4149 8.04545 21.0655 8.12784 20.7473 8.29261C20.4291 8.4517 20.1734 8.6733 19.9803 8.95739C19.7928 9.24148 19.6933 9.57386 19.682 9.95455V12.75C19.682 13.1705 19.77 13.5455 19.9462 13.875C20.1223 14.2045 20.3751 14.4631 20.7047 14.6506C21.0342 14.8381 21.432 14.9318 21.8979 14.9318C22.2217 14.9318 22.5172 14.8864 22.7842 14.7955C23.057 14.7045 23.2899 14.5739 23.4831 14.4034C23.6763 14.2273 23.8183 14.017 23.9092 13.7727H28.2047C28.057 14.6818 27.7075 15.4716 27.1564 16.142C26.6053 16.8068 25.8751 17.3239 24.9661 17.6932C24.0626 18.0568 23.0058 18.2386 21.7956 18.2386ZM30.2744 18V4.90909H34.8426V7.39773H34.979C35.2176 6.47727 35.5955 5.80398 36.1125 5.37784C36.6352 4.9517 37.246 4.73864 37.9449 4.73864C38.1494 4.73864 38.3511 4.75568 38.55 4.78977C38.7545 4.81818 38.9506 4.8608 39.1381 4.91761V8.93182C38.9051 8.85227 38.6182 8.79261 38.2773 8.75284C37.9364 8.71307 37.6437 8.69318 37.3994 8.69318C36.9392 8.69318 36.5244 8.7983 36.1551 9.00852C35.7915 9.21307 35.5045 9.50284 35.2943 9.87784C35.0841 10.2472 34.979 10.6818 34.979 11.1818V18H30.2744ZM46.3875 18.2386C44.967 18.2386 43.7511 17.9574 42.7398 17.3949C41.7284 16.8267 40.9528 16.0369 40.4131 15.0256C39.8733 14.0085 39.6034 12.8295 39.6034 11.4886C39.6034 10.1477 39.8733 8.97159 40.4131 7.96023C40.9528 6.94318 41.7284 6.15341 42.7398 5.59091C43.7511 5.02273 44.967 4.73864 46.3875 4.73864C47.808 4.73864 49.0239 5.02273 50.0352 5.59091C51.0466 6.15341 51.8222 6.94318 52.3619 7.96023C52.9017 8.97159 53.1716 10.1477 53.1716 11.4886C53.1716 12.8295 52.9017 14.0085 52.3619 15.0256C51.8222 16.0369 51.0466 16.8267 50.0352 17.3949C49.0239 17.9574 47.808 18.2386 46.3875 18.2386ZM46.4216 14.7614C46.8193 14.7614 47.1631 14.6278 47.4528 14.3608C47.7426 14.0937 47.967 13.7131 48.1261 13.2188C48.2852 12.7244 48.3648 12.1364 48.3648 11.4545C48.3648 10.767 48.2852 10.179 48.1261 9.69034C47.967 9.19602 47.7426 8.81534 47.4528 8.5483C47.1631 8.28125 46.8193 8.14773 46.4216 8.14773C46.0011 8.14773 45.6403 8.28125 45.3392 8.5483C45.0381 8.81534 44.808 9.19602 44.6489 9.69034C44.4898 10.179 44.4102 10.767 44.4102 11.4545C44.4102 12.1364 44.4898 12.7244 44.6489 13.2188C44.808 13.7131 45.0381 14.0937 45.3392 14.3608C45.6403 14.6278 46.0011 14.7614 46.4216 14.7614ZM61.5375 23.1818C60.225 23.1818 59.1 22.9943 58.1625 22.6193C57.2307 22.25 56.5062 21.7386 55.9892 21.0852C55.4778 20.4375 55.1909 19.6932 55.1284 18.8523H59.6625C59.708 19.1307 59.8216 19.3551 60.0034 19.5256C60.1852 19.696 60.4182 19.8182 60.7023 19.892C60.992 19.9716 61.3159 20.0114 61.6739 20.0114C62.2818 20.0114 62.7847 19.8636 63.1824 19.5682C63.5858 19.2727 63.7875 18.7386 63.7875 17.9659V15.75H63.6511C63.4807 16.1932 63.2193 16.571 62.867 16.8835C62.5148 17.1903 62.0915 17.4261 61.5972 17.5909C61.1028 17.75 60.5602 17.8295 59.9693 17.8295C59.0375 17.8295 58.1795 17.6136 57.3955 17.1818C56.617 16.75 55.992 16.0653 55.5205 15.1278C55.0545 14.1903 54.8216 12.9659 54.8216 11.4545C54.8216 9.875 55.0659 8.59091 55.5545 7.60227C56.0489 6.61364 56.6852 5.8892 57.4636 5.42898C58.2477 4.96875 59.0716 4.73864 59.9352 4.73864C60.583 4.73864 61.1511 4.85227 61.6398 5.07954C62.1284 5.30114 62.5375 5.59943 62.867 5.97443C63.1966 6.34375 63.4466 6.75 63.617 7.19318H63.7193V4.90909H68.4239V17.9659C68.4239 19.0739 68.1369 20.0142 67.5631 20.7869C66.9949 21.5653 66.1937 22.1591 65.1597 22.5682C64.1256 22.9773 62.9182 23.1818 61.5375 23.1818ZM61.708 14.4886C62.1398 14.4886 62.5091 14.3693 62.8159 14.1307C63.1284 13.8864 63.367 13.5398 63.5318 13.0909C63.7023 12.6364 63.7875 12.0909 63.7875 11.4545C63.7875 10.8068 63.7023 10.2528 63.5318 9.79261C63.367 9.3267 63.1284 8.97159 62.8159 8.72727C62.5091 8.47727 62.1398 8.35227 61.708 8.35227C61.2761 8.35227 60.9068 8.47727 60.6 8.72727C60.2989 8.97159 60.0659 9.3267 59.9011 9.79261C59.742 10.2528 59.6625 10.8068 59.6625 11.4545C59.6625 12.1023 59.742 12.6534 59.9011 13.108C60.0659 13.5568 60.2989 13.9006 60.6 14.1392C60.9068 14.3722 61.2761 14.4886 61.708 14.4886ZM75.6712 0.545454V18H70.9666V0.545454H75.6712ZM84.525 18.2386C83.1045 18.2386 81.8886 17.9574 80.8773 17.3949C79.8659 16.8267 79.0903 16.0369 78.5506 15.0256C78.0108 14.0085 77.7409 12.8295 77.7409 11.4886C77.7409 10.1477 78.0108 8.97159 78.5506 7.96023C79.0903 6.94318 79.8659 6.15341 80.8773 5.59091C81.8886 5.02273 83.1045 4.73864 84.525 4.73864C85.9455 4.73864 87.1614 5.02273 88.1727 5.59091C89.1841 6.15341 89.9597 6.94318 90.4994 7.96023C91.0392 8.97159 91.3091 10.1477 91.3091 11.4886C91.3091 12.8295 91.0392 14.0085 90.4994 15.0256C89.9597 16.0369 89.1841 16.8267 88.1727 17.3949C87.1614 17.9574 85.9455 18.2386 84.525 18.2386ZM84.5591 14.7614C84.9568 14.7614 85.3006 14.6278 85.5903 14.3608C85.8801 14.0937 86.1045 13.7131 86.2636 13.2188C86.4227 12.7244 86.5023 12.1364 86.5023 11.4545C86.5023 10.767 86.4227 10.179 86.2636 9.69034C86.1045 9.19602 85.8801 8.81534 85.5903 8.5483C85.3006 8.28125 84.9568 8.14773 84.5591 8.14773C84.1386 8.14773 83.7778 8.28125 83.4767 8.5483C83.1756 8.81534 82.9455 9.19602 82.7864 9.69034C82.6273 10.179 82.5477 10.767 82.5477 11.4545C82.5477 12.1364 82.6273 12.7244 82.7864 13.2188C82.9455 13.7131 83.1756 14.0937 83.4767 14.3608C83.7778 14.6278 84.1386 14.7614 84.5591 14.7614ZM93.3 18V0.545454H98.0045V7.19318H98.0727C98.2432 6.75 98.4932 6.34375 98.8227 5.97443C99.1523 5.59943 99.5614 5.30114 100.05 5.07954C100.539 4.85227 101.107 4.73864 101.755 4.73864C102.618 4.73864 103.439 4.96875 104.218 5.42898C105.002 5.8892 105.638 6.61364 106.127 7.60227C106.621 8.59091 106.868 9.875 106.868 11.4545C106.868 12.9659 106.632 14.2187 106.161 15.2131C105.695 16.2074 105.07 16.9489 104.286 17.4375C103.507 17.9261 102.652 18.1705 101.72 18.1705C101.107 18.1705 100.559 18.071 100.076 17.8722C99.5983 17.6676 99.1892 17.392 98.8483 17.0455C98.5131 16.6932 98.2545 16.2955 98.0727 15.8523H97.9705V18H93.3ZM97.9023 11.4545C97.9023 12.0909 97.9847 12.642 98.1494 13.108C98.3199 13.5682 98.5585 13.9261 98.8653 14.1818C99.1778 14.4318 99.55 14.5568 99.9818 14.5568C100.414 14.5568 100.78 14.4347 101.081 14.1903C101.388 13.9403 101.621 13.5852 101.78 13.125C101.945 12.6591 102.027 12.1023 102.027 11.4545C102.027 10.8068 101.945 10.2528 101.78 9.79261C101.621 9.3267 101.388 8.97159 101.081 8.72727C100.78 8.47727 100.414 8.35227 99.9818 8.35227C99.55 8.35227 99.1778 8.47727 98.8653 8.72727C98.5585 8.97159 98.3199 9.3267 98.1494 9.79261C97.9847 10.2528 97.9023 10.8068 97.9023 11.4545ZM115.26 18.2386C113.862 18.2386 112.657 17.9716 111.646 17.4375C110.64 16.8977 109.865 16.125 109.319 15.1193C108.78 14.108 108.51 12.8977 108.51 11.4886C108.51 10.1364 108.782 8.95455 109.328 7.94318C109.873 6.93182 110.643 6.14489 111.637 5.58239C112.632 5.01989 113.805 4.73864 115.157 4.73864C116.146 4.73864 117.041 4.89205 117.842 5.19886C118.643 5.50568 119.328 5.9517 119.896 6.53693C120.464 7.11648 120.902 7.82102 121.209 8.65057C121.515 9.48011 121.669 10.4148 121.669 11.4545V12.5455H109.976V9.95455H117.339C117.334 9.57955 117.237 9.25 117.049 8.96591C116.868 8.67614 116.62 8.4517 116.308 8.29261C116.001 8.12784 115.652 8.04545 115.26 8.04545C114.879 8.04545 114.53 8.12784 114.211 8.29261C113.893 8.4517 113.637 8.6733 113.444 8.95739C113.257 9.24148 113.157 9.57386 113.146 9.95455V12.75C113.146 13.1705 113.234 13.5455 113.41 13.875C113.586 14.2045 113.839 14.4631 114.169 14.6506C114.498 14.8381 114.896 14.9318 115.362 14.9318C115.686 14.9318 115.981 14.8864 116.248 14.7955C116.521 14.7045 116.754 14.5739 116.947 14.4034C117.14 14.2273 117.282 14.017 117.373 13.7727H121.669C121.521 14.6818 121.172 15.4716 120.62 16.142C120.069 16.8068 119.339 17.3239 118.43 17.6932C117.527 18.0568 116.47 18.2386 115.26 18.2386Z" fill="#111827"/>
<path d="M126.295 18.2727C125.636 18.2727 125.071 18.0426 124.599 17.5824C124.133 17.1165 123.903 16.5511 123.909 15.8864C123.903 15.2386 124.133 14.6847 124.599 14.2244C125.071 13.7642 125.636 13.5341 126.295 13.5341C126.92 13.5341 127.471 13.7642 127.949 14.2244C128.432 14.6847 128.676 15.2386 128.682 15.8864C128.676 16.3295 128.56 16.733 128.332 17.0966C128.111 17.4545 127.821 17.7415 127.463 17.9574C127.105 18.1676 126.716 18.2727 126.295 18.2727Z" fill="#10B981"/>
</svg>
