<svg width="16" height="14" viewBox="0 0 16 14" fill="none" xmlns="http://www.w3.org/2000/svg">
<path fill-rule="evenodd" clip-rule="evenodd" d="M15 0C14.7348 0 14.4804 0.105357 14.2929 0.292893C14.1054 0.48043 14 0.734784 14 1V13C14 13.2652 14.1054 13.5196 14.2929 13.7071C14.4804 13.8946 14.7348 14 15 14C15.2652 14 15.5196 13.8946 15.7071 13.7071C15.8946 13.5196 16 13.2652 16 13V1C16 0.734784 15.8946 0.48043 15.7071 0.292893C15.5196 0.105357 15.2652 0 15 0ZM7.293 3.293C7.10553 3.48053 7.00021 3.73484 7.00021 4C7.00021 4.26516 7.10553 4.51947 7.293 4.707L8.586 6H1C0.734783 6 0.480429 6.10536 0.292892 6.29289C0.105356 6.48043 0 6.73478 0 7C0 7.26522 0.105356 7.51957 0.292892 7.70711C0.480429 7.89464 0.734783 8 1 8H8.586L7.293 9.293C7.11084 9.4816 7.01005 9.7342 7.01233 9.9964C7.0146 10.2586 7.11977 10.5094 7.30518 10.6948C7.49059 10.8802 7.7414 10.9854 8.0036 10.9877C8.2658 10.99 8.5184 10.8892 8.707 10.707L11.707 7.707C11.8945 7.51947 11.9998 7.26516 11.9998 7C11.9998 6.73484 11.8945 6.48053 11.707 6.293L8.707 3.293C8.51947 3.10553 8.26516 3.00021 8 3.00021C7.73484 3.00021 7.48053 3.10553 7.293 3.293Z" fill="#111827"/>
</svg>
