<svg width="54" height="51" viewBox="0 0 54 51" fill="none" xmlns="http://www.w3.org/2000/svg">
<rect width="54" height="50.0455" rx="8" fill="#10B981" fill-opacity="0.08"/>
<path d="M21.4494 33.9545C20.3358 33.9545 19.3509 33.7727 18.4949 33.4091C17.6464 33.0379 16.9797 32.4773 16.4949 31.7273C16.01 30.9773 15.7676 30.0227 15.7676 28.8636C15.7676 27.9091 15.9305 27.0947 16.2562 26.4205C16.582 25.7386 17.0365 25.1818 17.6199 24.75C18.2032 24.3182 18.8812 23.9886 19.6539 23.7614C20.4342 23.5341 21.2752 23.3864 22.1767 23.3182C23.1539 23.2424 23.938 23.1515 24.5289 23.0455C25.1274 22.9318 25.5592 22.7765 25.8244 22.5795C26.0895 22.375 26.2221 22.1061 26.2221 21.7727V21.7273C26.2221 21.2727 26.0479 20.9242 25.6994 20.6818C25.3509 20.4394 24.9039 20.3182 24.3585 20.3182C23.76 20.3182 23.2714 20.4508 22.8926 20.7159C22.5214 20.9735 22.2979 21.3712 22.2221 21.9091H16.4494C16.5252 20.8485 16.8623 19.8712 17.4608 18.9773C18.0668 18.0758 18.9494 17.3561 20.1085 16.8182C21.2676 16.2727 22.7145 16 24.4494 16C25.6994 16 26.8206 16.1477 27.813 16.4432C28.8055 16.7311 29.6502 17.1364 30.3471 17.6591C31.0441 18.1742 31.5744 18.7803 31.938 19.4773C32.3092 20.1667 32.4949 20.9167 32.4949 21.7273V33.6818H26.6312V31.2273H26.4949C26.1464 31.8788 25.7221 32.4053 25.2221 32.8068C24.7297 33.2083 24.1653 33.5 23.5289 33.6818C22.9002 33.8636 22.207 33.9545 21.4494 33.9545ZM23.4949 30C23.9721 30 24.4191 29.9015 24.8358 29.7045C25.26 29.5076 25.6047 29.2235 25.8699 28.8523C26.135 28.4811 26.2676 28.0303 26.2676 27.5V26.0455C26.1009 26.1136 25.9229 26.178 25.7335 26.2386C25.5517 26.2992 25.3547 26.3561 25.1426 26.4091C24.938 26.4621 24.7183 26.5114 24.4835 26.5568C24.2562 26.6023 24.0176 26.6439 23.7676 26.6818C23.2827 26.7576 22.885 26.8826 22.5744 27.0568C22.2714 27.2235 22.0441 27.4318 21.8926 27.6818C21.7486 27.9242 21.6767 28.197 21.6767 28.5C21.6767 28.9848 21.8471 29.3561 22.188 29.6136C22.5289 29.8712 22.9645 30 23.4949 30Z" fill="#111827"/>
<path d="M39.0511 34.0455C38.1723 34.0455 37.4185 33.7386 36.7897 33.125C36.1685 32.5038 35.8617 31.75 35.8693 30.8636C35.8617 30 36.1685 29.2614 36.7897 28.6477C37.4185 28.0341 38.1723 27.7273 39.0511 27.7273C39.8844 27.7273 40.6193 28.0341 41.2556 28.6477C41.8996 29.2614 42.2253 30 42.2329 30.8636C42.2253 31.4545 42.07 31.9924 41.767 32.4773C41.4716 32.9545 41.0852 33.3371 40.6079 33.625C40.1306 33.9053 39.6117 34.0455 39.0511 34.0455Z" fill="#10B981"/>
</svg>
